<?xml version="1.0" encoding="utf-8"?>
<svg viewBox="45.6325 61.4724 419.8933 344.4079" width="419.8933" height="344.4079" xmlns="http://www.w3.org/2000/svg">
  <path class="st0" fill="#d8e7ff" d="M 72.14 94.97 L 78.57 94.97 L 114.41 94.97 C 115.13 94.97 115.71 94.39 115.71 93.67 L 115.71 60.4 C 117.17 60.96 118.53 60.97 119.66 60.59 C 120.55 60.29 121.29 59.76 121.84 59.06 C 122.39 58.37 122.74 57.53 122.84 56.6 C 123 55.17 122.57 53.54 121.35 52.01 L 117.61 49.27 L 117.61 33.14 L 107.24 33.14 L 107.24 41.49 L 83.21 24.08 C 82.75 23.66 82.04 23.62 81.53 24.01 L 67.27 34.4 L 44.82 18.05 C 44.27 17.62 43.5 17.67 43 18.13 L 1.89 48.18 C 1.8 48.25 1.73 48.32 1.66 48.41 C 0.33 50.06 -0.14 51.83 0.04 53.38 C 0.15 54.38 0.53 55.29 1.13 56.04 C 1.73 56.79 2.53 57.37 3.49 57.69 C 4.72 58.1 6.19 58.1 7.77 57.49 L 7.77 93.55 C 7.77 94.33 8.4 94.96 9.18 94.96 L 72.14 94.96 L 72.14 94.97 Z M 79.99 63.48 L 80.097 91.662 L 103.37 91.69 L 112.44 91.69 L 112.44 59.04 C 112.44 58.92 112.46 58.81 112.48 58.7 L 82.1 36.92 L 76.43 41.07 L 86.01 48.05 C 86.07 48.1 86.12 48.15 86.18 48.2 C 87.97 50.12 88.41 52.26 87.98 54.06 C 87.77 54.95 87.34 55.75 86.75 56.41 C 86.16 57.07 85.42 57.58 84.56 57.89 C 83.21 58.38 81.6 58.36 79.98 57.59 L 79.98 63.48 L 79.99 63.48 Z M 71.937 1.805 C 73.857 1.805 75.587 2.585 76.847 3.835 C 78.107 5.095 78.877 6.825 78.877 8.745 C 78.877 10.665 78.097 12.395 76.847 13.655 C 75.587 14.915 73.857 15.685 71.937 15.685 C 70.017 15.685 68.287 14.905 67.027 13.655 C 65.767 12.395 64.997 10.665 64.997 8.745 C 64.997 6.825 65.777 5.095 67.027 3.835 C 68.287 2.585 70.027 1.805 71.937 1.805 Z" style="clip-rule: evenodd; fill-rule: evenodd;" transform="matrix(3.417408943176269, 0, 0, 3.6967520713806152, 45.62170478137885, 54.799809318778046)"/>
</svg>